<?xml version="1.0" encoding="utf-8"?>
<!-- Generator: Adobe Illustrator 23.0.1, SVG Export Plug-In . SVG Version: 6.00 Build 0)  -->
<svg version="1.1" xmlns="http://www.w3.org/2000/svg" xmlns:xlink="http://www.w3.org/1999/xlink" x="0px" y="0px"
	 viewBox="0 0 595.3 841.9" style="enable-background:new 0 0 595.3 841.9;" xml:space="preserve">
<style type="text/css">
	.st0{display:none;}
	.st1{fill:#FFFFFF;}
	.st2{opacity:0.58;}
	.st3{fill:#FFF200;}
	.st4{fill:none;}
	.st5{fill:#009444;}
	.st6{fill:#27AAE1;}
</style>
<g id="Layer_1" class="st0">
	
		<image style="display:inline;overflow:visible;" width="664" height="648" xlink:href="F7D5D113.jpg"  transform="matrix(0.6648 0 0 0.6648 92.8378 145.0125)">
	</image>
</g>
<g id="Layer_2">
	<path class="st1" d="M170.8,325l7.7,8.8C175.7,331,173.1,328.1,170.8,325z"/>
	<path d="M301.4,168.7c0,0-1.2,1.4-2.1,2.3l-0.1,0.1l-7.6,8l-11.2-11.2l-2.8,2.7l-2.7,2.7l11.3,11.4l-59.6,62.8l2.8,2.8l2.7,2.7
		l16.5-17.4c0,8.6-0.1,17.2-0.1,25.8h12c0-1,0-2,0-2.9c10.2-5.5,16-12,19.1-16.1c11.3-15.2,12.5-33.8,13.1-43.9
		c0.5,9.9,1.6,29,13.1,44.4c3.1,4.1,8.9,10.7,19.1,16.1c0,0.8,0,1.6,0,2.4h-64.3c0,0.1,0,0.3,0,0.4l-7.3-0.3l-4.7-0.2h-13.4
		c0,0,0,1.7,0,3.9c0,2.1,0,3.8,0,3.8h116.5v-1.3c0,0,0-1.5,0-2.6c0-2.1,0-3.9,0-3.9h-13.4c-0.1-8.3-0.1-16.6-0.2-24.9l14.2,14.1
		l2.7-2.7l2.8-2.7L297,184.5l7.8-8.3c0.7-0.7,1.9-2.1,1.9-2.1 M292.8,197.8c0,0.2,0,0.4,0,0.6c-0.1-1.1-0.1-2.1-0.1-2.7
		c0.1,0.1,0.2,0.2,0.2,0.3C292.8,196.5,292.8,197.2,292.8,197.8z M301.2,169.4"/>
	<path d="M260.6,261.8l-7.3-0.3l-4.7-0.2h12C260.6,261.5,260.6,261.6,260.6,261.8z"/>
	<path class="st2" d="M292.8,198.4c-0.1-1.1-0.1-2.1-0.1-2.7c0.1,0.1,0.2,0.2,0.2,0.3c0,0.5,0,1.1-0.1,1.8
		C292.8,198,292.8,198.2,292.8,198.4z"/>
	<path d="M249.2,264.2"/>
	<path d="M292.9,196c0,0.5,0,1.1-0.1,1.8c0,0.2,0,0.4,0,0.6c-0.1-1.1-0.1-2.1-0.1-2.7C292.7,195.8,292.8,195.9,292.9,196z"/>
	<path d="M260.6,261.4h-12l4.7,0.2l7.3,0.3C260.6,261.6,260.6,261.5,260.6,261.4z"/>
	<path d="M292.6,195.7c0.1,0.1,0.2,0.2,0.2,0.3c0,0.5,0,1.1-0.1,1.8c0,0.2,0,0.4,0,0.6C292.7,197.3,292.7,196.3,292.6,195.7z"/>
	<path d="M332.2,264.2c-0.2,0.6-0.4,1.2-0.8,1.5c-1.1,1.1-3.3,1.1-6.5,0.1c0-0.6,0-1.3,0-1.9L332.2,264.2z"/>
	<circle cx="292.6" cy="250.2" r="4.7"/>
	<g>
		<g>
			<path d="M250.6,292.8c-1,0-1.9-0.2-2.7-0.5s-1.5-0.8-2.1-1.4s-1.1-1.3-1.4-2.1c-0.3-0.8-0.5-1.6-0.5-2.6c0-0.9,0.2-1.8,0.5-2.6
				c0.3-0.8,0.8-1.5,1.4-2.1c0.6-0.6,1.3-1,2.1-1.4c0.8-0.3,1.7-0.5,2.7-0.5c1,0,2,0.2,2.8,0.5c0.9,0.4,1.6,0.9,2.2,1.6l-1.5,1.4
				c-0.5-0.5-1-0.9-1.5-1.1s-1.2-0.4-1.8-0.4c-0.7,0-1.3,0.1-1.8,0.3c-0.5,0.2-1,0.5-1.4,0.9c-0.4,0.4-0.7,0.9-0.9,1.4
				c-0.2,0.5-0.3,1.1-0.3,1.8c0,0.6,0.1,1.2,0.3,1.8c0.2,0.5,0.5,1,0.9,1.4c0.4,0.4,0.9,0.7,1.4,0.9c0.5,0.2,1.1,0.3,1.8,0.3
				c0.6,0,1.3-0.1,1.8-0.4c0.6-0.2,1.1-0.6,1.5-1.1l1.5,1.4c-0.6,0.7-1.3,1.2-2.2,1.6C252.6,292.7,251.7,292.8,250.6,292.8z"/>
			<path d="M260.6,292.8c-0.7,0-1.4-0.1-1.9-0.4c-0.5-0.2-1-0.6-1.3-1s-0.4-0.9-0.4-1.5c0-0.5,0.1-1,0.4-1.5c0.3-0.4,0.7-0.8,1.3-1
				c0.6-0.3,1.4-0.4,2.3-0.4h2.8v1.5h-2.6c-0.8,0-1.3,0.1-1.5,0.4s-0.4,0.6-0.4,0.9c0,0.4,0.2,0.7,0.5,1c0.3,0.2,0.8,0.4,1.3,0.4
				c0.6,0,1-0.1,1.5-0.4c0.4-0.3,0.8-0.6,1-1.1l0.4,1.4c-0.2,0.6-0.6,1-1.2,1.3C262.1,292.6,261.4,292.8,260.6,292.8z M263.6,292.7
				v-2l-0.1-0.4v-3.4c0-0.7-0.2-1.2-0.6-1.5c-0.4-0.4-1-0.5-1.8-0.5c-0.5,0-1.1,0.1-1.6,0.3c-0.5,0.2-1,0.4-1.3,0.7l-0.9-1.6
				c0.5-0.4,1.1-0.7,1.9-0.9c0.7-0.2,1.4-0.3,2.2-0.3c1.4,0,2.5,0.3,3.2,1c0.8,0.7,1.1,1.7,1.1,3.1v5.6H263.6z"/>
			<path d="M280.7,282.9c0.8,0,1.4,0.1,2,0.4c0.6,0.3,1.1,0.8,1.4,1.4s0.5,1.4,0.5,2.4v5.5h-2.2v-5.2c0-0.9-0.2-1.5-0.6-1.9
				s-0.9-0.6-1.6-0.6c-0.5,0-0.9,0.1-1.3,0.3c-0.4,0.2-0.7,0.5-0.9,1c-0.2,0.4-0.3,1-0.3,1.6v4.9h-2.2v-5.2c0-0.9-0.2-1.5-0.6-1.9
				s-0.9-0.6-1.6-0.6c-0.5,0-0.9,0.1-1.3,0.3c-0.4,0.2-0.7,0.5-0.9,1c-0.2,0.4-0.3,1-0.3,1.6v4.9h-2.2v-9.6h2.1v2.6l-0.4-0.8
				c0.3-0.6,0.8-1.1,1.4-1.4s1.3-0.5,2.1-0.5c0.9,0,1.7,0.2,2.3,0.7c0.7,0.4,1.1,1.1,1.3,2.1l-0.9-0.3c0.3-0.7,0.8-1.3,1.5-1.7
				C278.9,283.2,279.8,282.9,280.7,282.9z"/>
			<path d="M287.6,296.2v-13.1h2.1v2.3l-0.1,2.6l0.2,2.6v5.7H287.6z M292.9,292.8c-0.8,0-1.5-0.2-2.1-0.5c-0.6-0.4-1.1-0.9-1.5-1.6
				c-0.4-0.7-0.6-1.7-0.6-2.8c0-1.1,0.2-2.1,0.5-2.8c0.4-0.7,0.9-1.3,1.5-1.6s1.4-0.5,2.2-0.5c0.9,0,1.8,0.2,2.5,0.6
				c0.7,0.4,1.3,1,1.7,1.7s0.6,1.6,0.6,2.6c0,1-0.2,1.9-0.6,2.6c-0.4,0.7-1,1.3-1.7,1.7C294.6,292.6,293.8,292.8,292.9,292.8z
				 M292.6,290.9c0.6,0,1-0.1,1.5-0.4s0.8-0.6,1-1.1c0.3-0.5,0.4-1,0.4-1.6c0-0.6-0.1-1.1-0.4-1.6c-0.3-0.5-0.6-0.8-1-1
				s-0.9-0.4-1.5-0.4c-0.5,0-1,0.1-1.4,0.4c-0.4,0.2-0.8,0.6-1,1c-0.3,0.4-0.4,1-0.4,1.6c0,0.6,0.1,1.1,0.4,1.6
				c0.3,0.5,0.6,0.8,1,1.1C291.6,290.8,292.1,290.9,292.6,290.9z"/>
			<path d="M299.3,284.8l1-4l0.3,1.4c-0.4,0-0.8-0.1-1.1-0.4s-0.4-0.6-0.4-1.1s0.1-0.8,0.4-1.1s0.6-0.4,1-0.4c0.4,0,0.8,0.1,1.1,0.4
				c0.3,0.3,0.4,0.6,0.4,1.1c0,0.1,0,0.3,0,0.4c0,0.1-0.1,0.3-0.1,0.5c-0.1,0.2-0.1,0.4-0.3,0.7l-1,2.6H299.3z"/>
			<path d="M309.7,282.9c0.8,0,1.5,0.1,2.1,0.4c0.6,0.3,1.1,0.8,1.4,1.4c0.4,0.6,0.5,1.4,0.5,2.4v5.5h-2.3v-5.2
				c0-0.9-0.2-1.5-0.6-1.9c-0.4-0.4-1-0.6-1.7-0.6c-0.5,0-1,0.1-1.4,0.3c-0.4,0.2-0.7,0.5-0.9,1c-0.2,0.4-0.3,1-0.3,1.6v4.9h-2.2
				v-9.6h2.1v2.6l-0.4-0.8c0.3-0.6,0.8-1.1,1.4-1.4C308.2,283.1,308.9,282.9,309.7,282.9z"/>
			<path d="M316,284.8l1-4l0.3,1.4c-0.4,0-0.8-0.1-1.1-0.4s-0.4-0.6-0.4-1.1s0.1-0.8,0.4-1.1s0.6-0.4,1-0.4c0.4,0,0.8,0.1,1.1,0.4
				c0.3,0.3,0.4,0.6,0.4,1.1c0,0.1,0,0.3,0,0.4c0,0.1-0.1,0.3-0.1,0.5c-0.1,0.2-0.1,0.4-0.3,0.7l-1,2.6H316z"/>
			<path d="M325.1,292.2c-0.9,0-1.8-0.2-2.5-0.6c-0.7-0.4-1.3-0.9-1.7-1.6c-0.4-0.7-0.6-1.5-0.6-2.4c0-0.9,0.2-1.8,0.6-2.5
				c0.4-0.7,1-1.2,1.7-1.6c0.7-0.4,1.6-0.6,2.5-0.6c0.8,0,1.6,0.2,2.2,0.5c0.7,0.3,1.2,0.8,1.6,1.5c0.4,0.7,0.6,1.6,0.6,2.6
				c0,1.1-0.2,1.9-0.6,2.6c-0.4,0.7-0.9,1.2-1.6,1.5S325.9,292.2,325.1,292.2z M325.4,296.3c-0.9,0-1.8-0.1-2.6-0.4
				c-0.8-0.2-1.5-0.6-2.1-1l1-1.7c0.4,0.3,0.9,0.6,1.6,0.8c0.6,0.2,1.3,0.3,2,0.3c1,0,1.8-0.2,2.3-0.7c0.5-0.5,0.7-1.2,0.7-2.2v-1.7
				l0.2-2.2l-0.1-2.2v-2.4h2.1v8.2c0,1.7-0.4,3-1.3,3.8C328.3,295.9,327,296.3,325.4,296.3z M325.4,290.3c0.6,0,1.1-0.1,1.5-0.4
				c0.4-0.2,0.8-0.6,1-1s0.4-0.9,0.4-1.4c0-0.6-0.1-1-0.4-1.4c-0.2-0.4-0.6-0.7-1-1c-0.4-0.2-0.9-0.3-1.5-0.3
				c-0.6,0-1.1,0.1-1.5,0.3c-0.5,0.2-0.8,0.5-1,1c-0.2,0.4-0.4,0.9-0.4,1.4c0,0.5,0.1,1,0.4,1.4c0.2,0.4,0.6,0.7,1,1
				S324.9,290.3,325.4,290.3z"/>
			<path d="M337.8,292.8c-1,0-1.8-0.2-2.6-0.6c-0.8-0.4-1.4-1-1.8-1.8c-0.4-0.7-0.7-1.6-0.7-2.5c0-1,0.2-1.8,0.7-2.6
				c0.4-0.7,1.1-1.3,1.8-1.7c0.8-0.4,1.6-0.6,2.6-0.6c1,0,1.9,0.2,2.7,0.6c0.8,0.4,1.4,1,1.8,1.7c0.4,0.7,0.7,1.6,0.7,2.6
				c0,1-0.2,1.8-0.7,2.5c-0.4,0.7-1,1.3-1.8,1.7C339.7,292.6,338.8,292.8,337.8,292.8z M337.8,290.9c0.6,0,1-0.1,1.5-0.4
				c0.4-0.2,0.8-0.6,1-1.1s0.4-1,0.4-1.6c0-0.6-0.1-1.1-0.4-1.6c-0.2-0.5-0.6-0.8-1-1c-0.4-0.2-0.9-0.4-1.5-0.4
				c-0.5,0-1,0.1-1.5,0.4c-0.4,0.2-0.8,0.6-1,1c-0.3,0.4-0.4,1-0.4,1.6c0,0.6,0.1,1.1,0.4,1.6s0.6,0.8,1,1.1
				C336.8,290.8,337.3,290.9,337.8,290.9z"/>
		</g>
	</g>
	<path d="M302.1,169.7"/>
	<path d="M296.2,168.6"/>
	<line class="st3" x1="301.4" y1="168.7" x2="306.8" y2="174.1"/>
	<line class="st3" x1="280.2" y1="168" x2="274.7" y2="173.4"/>
	<line class="st4" x1="230.1" y1="244" x2="235.5" y2="249.4"/>
	<line class="st5" x1="226.7" y1="247.4" x2="232.1" y2="252.8"/>
	<line class="st6" x1="235.2" y1="261.4" x2="235.2" y2="269"/>
	<line class="st6" x1="351.7" y1="261.4" x2="351.7" y2="269"/>
	<path class="st6" d="M352.3,250.5"/>
</g>
</svg>
