<svg xml:space="preserve" style="max-height: 500px" viewBox="215.24971751412428 158.2772 153.02909604519775 151.542"
     y="0px" x="0px"
     xmlns="http://www.w3.org/2000/svg" version="1.1" width="153.02909604519775" height="151.542">
<g id="Layer_2">
	<path d="M170.8,325l7.7,8.8C175.7,331,173.1,328.1,170.8,325z" fill="currentColor"/>
	<path d="M301.4,168.7c0,0-1.2,1.4-2.1,2.3l-0.1,0.1l-7.6,8l-11.2-11.2l-2.8,2.7l-2.7,2.7l11.3,11.4l-59.6,62.8l2.8,2.8l2.7,2.7&#10;&#9;&#9;l16.5-17.4c0,8.6-0.1,17.2-0.1,25.8h12c0-1,0-2,0-2.9c10.2-5.5,16-12,19.1-16.1c11.3-15.2,12.5-33.8,13.1-43.9&#10;&#9;&#9;c0.5,9.9,1.6,29,13.1,44.4c3.1,4.1,8.9,10.7,19.1,16.1c0,0.8,0,1.6,0,2.4h-64.3c0,0.1,0,0.3,0,0.4l-7.3-0.3l-4.7-0.2h-13.4&#10;&#9;&#9;c0,0,0,1.7,0,3.9c0,2.1,0,3.8,0,3.8h116.5v-1.3c0,0,0-1.5,0-2.6c0-2.1,0-3.9,0-3.9h-13.4c-0.1-8.3-0.1-16.6-0.2-24.9l14.2,14.1&#10;&#9;&#9;l2.7-2.7l2.8-2.7L297,184.5l7.8-8.3c0.7-0.7,1.9-2.1,1.9-2.1 M292.8,197.8c0,0.2,0,0.4,0,0.6c-0.1-1.1-0.1-2.1-0.1-2.7&#10;&#9;&#9;c0.1,0.1,0.2,0.2,0.2,0.3C292.8,196.5,292.8,197.2,292.8,197.8z M301.2,169.4" fill="currentColor"/>
	<path d="M260.6,261.8l-7.3-0.3l-4.7-0.2h12C260.6,261.5,260.6,261.6,260.6,261.8z" fill="currentColor"/>
	<path d="M292.8,198.4c-0.1-1.1-0.1-2.1-0.1-2.7c0.1,0.1,0.2,0.2,0.2,0.3c0,0.5,0,1.1-0.1,1.8&#10;&#9;&#9;C292.8,198,292.8,198.2,292.8,198.4z" fill="currentColor"/>
	<path d="M249.2,264.2" fill="currentColor"/>
	<path d="M292.9,196c0,0.5,0,1.1-0.1,1.8c0,0.2,0,0.4,0,0.6c-0.1-1.1-0.1-2.1-0.1-2.7C292.7,195.8,292.8,195.9,292.9,196z" fill="currentColor"/>
	<path d="M260.6,261.4h-12l4.7,0.2l7.3,0.3C260.6,261.6,260.6,261.5,260.6,261.4z" fill="currentColor"/>
	<path d="M292.6,195.7c0.1,0.1,0.2,0.2,0.2,0.3c0,0.5,0,1.1-0.1,1.8c0,0.2,0,0.4,0,0.6C292.7,197.3,292.7,196.3,292.6,195.7z" fill="currentColor"/>
	<path d="M332.2,264.2c-0.2,0.6-0.4,1.2-0.8,1.5c-1.1,1.1-3.3,1.1-6.5,0.1c0-0.6,0-1.3,0-1.9L332.2,264.2z" fill="currentColor"/>
	<circle r="4.7" cy="250.2" cx="292.6" fill="currentColor"/>
	<path d="M302.1,169.7" fill="currentColor"/>
	<path d="M296.2,168.6" fill="currentColor"/>
</g>
</svg>
